<svg width="512" height="512" viewBox="0 0 512 512" fill="none" xmlns="http://www.w3.org/2000/svg">
  <circle cx="256" cy="180" r="60" stroke="#0A5F2A" stroke-width="3.5" stroke-linecap="round" stroke-linejoin="round"/>
  <path d="M196 180C196 150 220 120 256 120C292 120 316 150 316 180C316 210 292 240 256 240C220 240 196 210 196 180Z" stroke="#0A5F2A" stroke-width="3.5" stroke-linecap="round" stroke-linejoin="round"/>
  <path d="M176 280C176 260 200 240 256 240C312 240 336 260 336 280V360H176V280Z" stroke="#0A5F2A" stroke-width="3.5" stroke-linecap="round" stroke-linejoin="round"/>
  <path d="M256 240V280" stroke="#0A5F2A" stroke-width="3.5" stroke-linecap="round" stroke-linejoin="round"/>
  <path d="M220 320H292" stroke="#0A5F2A" stroke-width="3.5" stroke-linecap="round" stroke-linejoin="round"/>
  <path d="M236 360V340" stroke="#0A5F2A" stroke-width="3.5" stroke-linecap="round" stroke-linejoin="round"/>
  <path d="M276 360V340" stroke="#0A5F2A" stroke-width="3.5" stroke-linecap="round" stroke-linejoin="round"/>
</svg>
