<svg width="512" height="512" viewBox="0 0 512 512" fill="none" xmlns="http://www.w3.org/2000/svg">
  <path d="M256 160C220 160 192 188 192 224C192 260 220 288 256 288C292 288 320 260 320 224C320 188 292 160 256 160Z" stroke="#0A5F2A" stroke-width="3.5" stroke-linecap="round" stroke-linejoin="round"/>
  <path d="M256 288V360" stroke="#0A5F2A" stroke-width="3.5" stroke-linecap="round" stroke-linejoin="round"/>
  <path d="M220 360H292" stroke="#0A5F2A" stroke-width="3.5" stroke-linecap="round" stroke-linejoin="round"/>
  <path d="M236 400H276" stroke="#0A5F2A" stroke-width="3.5" stroke-linecap="round" stroke-linejoin="round"/>
  <path d="M256 360V400" stroke="#0A5F2A" stroke-width="3.5" stroke-linecap="round" stroke-linejoin="round"/>
  <path d="M200 224C200 200 220 180 256 180" stroke="#0A5F2A" stroke-width="3.5" stroke-linecap="round" stroke-linejoin="round"/>
  <path d="M312 224C312 200 292 180 256 180" stroke="#0A5F2A" stroke-width="3.5" stroke-linecap="round" stroke-linejoin="round"/>
  <path d="M236 180L276 180" stroke="#0A5F2A" stroke-width="3.5" stroke-linecap="round" stroke-linejoin="round"/>
</svg>
