<svg width="512" height="512" viewBox="0 0 512 512" fill="none" xmlns="http://www.w3.org/2000/svg">
  <rect x="200" y="160" width="112" height="200" rx="8" stroke="#0A5F2A" stroke-width="3.5" stroke-linecap="round" stroke-linejoin="round"/>
  <path d="M200 200H312" stroke="#0A5F2A" stroke-width="3.5" stroke-linecap="round" stroke-linejoin="round"/>
  <path d="M200 240H312" stroke="#0A5F2A" stroke-width="3.5" stroke-linecap="round" stroke-linejoin="round"/>
  <path d="M200 280H312" stroke="#0A5F2A" stroke-width="3.5" stroke-linecap="round" stroke-linejoin="round"/>
  <!-- Water treatment circles with different pattern -->
  <circle cx="236" cy="220" r="12" stroke="#0A5F2A" stroke-width="3.5" stroke-linecap="round" stroke-linejoin="round"/>
  <circle cx="276" cy="220" r="12" stroke="#0A5F2A" stroke-width="3.5" stroke-linecap="round" stroke-linejoin="round"/>
  <circle cx="236" cy="260" r="12" stroke="#0A5F2A" stroke-width="3.5" stroke-linecap="round" stroke-linejoin="round"/>
  <circle cx="276" cy="260" r="12" stroke="#0A5F2A" stroke-width="3.5" stroke-linecap="round" stroke-linejoin="round"/>
  <!-- Water drops for treatment -->
  <path d="M236 210C236 205 240 200 244 200C248 200 252 205 252 210C252 215 248 220 244 220C240 220 236 215 236 210Z" stroke="#0A5F2A" stroke-width="3.5" stroke-linecap="round" stroke-linejoin="round"/>
  <path d="M260 250C260 245 264 240 268 240C272 240 276 245 276 250C276 255 272 260 268 260C264 260 260 255 260 250Z" stroke="#0A5F2A" stroke-width="3.5" stroke-linecap="round" stroke-linejoin="round"/>
  <!-- Clean water outlet -->
  <path d="M236 320V360" stroke="#0A5F2A" stroke-width="3.5" stroke-linecap="round" stroke-linejoin="round"/>
  <path d="M276 320V360" stroke="#0A5F2A" stroke-width="3.5" stroke-linecap="round" stroke-linejoin="round"/>
  <path d="M220 360H292" stroke="#0A5F2A" stroke-width="3.5" stroke-linecap="round" stroke-linejoin="round"/>
</svg>
